<svg width="205.5" height="71.602" viewBox="0 0 205.5 71.602" xmlns="http://www.w3.org/2000/svg">
    <g>
        <path d="M 0, 75
C 0, 18.75 18.75, 0 75, 0
                S 150, 18.75 150, 75
                    131.25, 150 75, 150
                    0, 131.25 0, 75
            " fill="#99B898" transform="rotate(
                0,
                100,
                100
            ) translate(
                25
                25
            )"></path>
    </g>
    <g id="svgGroup" stroke-linecap="round" fill-rule="evenodd" font-size="9pt" stroke="#000" stroke-width="0.25mm" fill="black" style="stroke:#000;stroke-width:0.25mm;fill:black">
        <path d="M 123.4 51.501 L 123.4 46.901 A 0.72 0.72 0 0 1 123.425 46.703 Q 123.511 46.401 123.9 46.401 L 135.1 46.401 A 0.453 0.453 0 0 1 135.275 46.432 Q 135.5 46.526 135.5 46.901 L 135.5 51.501 Q 135.5 54.801 137.7 57.151 A 7.501 7.501 0 0 0 140.043 58.876 A 6.995 6.995 0 0 0 143 59.501 Q 146.1 59.501 148.3 57.101 Q 150.5 54.701 150.5 51.501 A 5.722 5.722 0 0 0 149.105 47.802 Q 147.913 46.345 145.7 45.101 Q 144.1 44.201 140.7 42.301 Q 137.3 40.401 134.3 38.701 Q 128.8 35.501 126.15 30.651 A 21.776 21.776 0 0 1 123.593 21.944 A 26.574 26.574 0 0 1 123.5 19.701 A 19.887 19.887 0 0 1 124.581 13.074 A 18.181 18.181 0 0 1 126.2 9.651 Q 128.9 5.201 133.35 2.601 Q 137.8 0.001 143 0.001 Q 148.3 0.001 152.75 2.651 Q 157.2 5.301 159.85 9.751 A 18.964 18.964 0 0 1 162.494 19.187 A 22.53 22.53 0 0 1 162.5 19.701 L 162.5 27.901 A 0.576 0.576 0 0 1 162.48 28.059 Q 162.429 28.236 162.248 28.284 A 0.589 0.589 0 0 1 162.1 28.301 L 150.9 28.301 A 0.576 0.576 0 0 1 150.742 28.281 Q 150.564 28.23 150.517 28.049 A 0.589 0.589 0 0 1 150.5 27.901 L 150.4 19.701 A 9.094 9.094 0 0 0 150.037 17.071 A 7.219 7.219 0 0 0 148.2 14.001 A 7.522 7.522 0 0 0 145.719 12.317 A 7.128 7.128 0 0 0 143 11.801 A 6.956 6.956 0 0 0 137.908 13.935 A 8.944 8.944 0 0 0 137.7 14.151 Q 135.5 16.501 135.5 19.701 A 12.879 12.879 0 0 0 135.714 22.111 Q 136.047 23.86 136.9 25.201 Q 138.272 27.357 141.853 29.32 A 27.497 27.497 0 0 0 142 29.401 A 11.632 11.632 0 0 0 142.287 29.566 Q 142.84 29.876 143.95 30.451 Q 145.4 31.201 147.1 32.151 A 137.694 137.694 0 0 0 148.521 32.934 Q 149.391 33.407 150.15 33.801 Q 151.413 34.456 151.757 34.673 A 2.09 2.09 0 0 1 151.8 34.701 Q 156.8 37.501 159.7 41.551 A 15.265 15.265 0 0 1 162.288 47.828 A 20.742 20.742 0 0 1 162.6 51.501 A 21.028 21.028 0 0 1 161.565 58.176 A 18.986 18.986 0 0 1 159.95 61.751 Q 157.3 66.301 152.85 68.951 Q 148.4 71.601 143 71.601 Q 137.6 71.601 133.15 68.851 Q 128.7 66.101 126.05 61.551 Q 123.4 57.001 123.4 51.501 Z M 116.7 70.601 L 84.4 70.601 A 0.453 0.453 0 0 1 84.225 70.569 Q 84 70.476 84 70.101 L 84.1 1.401 A 0.576 0.576 0 0 1 84.12 1.242 Q 84.171 1.065 84.352 1.018 A 0.589 0.589 0 0 1 84.5 1.001 L 116.6 1.001 A 0.453 0.453 0 0 1 116.775 1.032 Q 117 1.126 117 1.501 L 117 12.701 A 0.576 0.576 0 0 1 116.98 12.859 Q 116.929 13.036 116.748 13.084 A 0.589 0.589 0 0 1 116.6 13.101 L 96.1 13.101 L 96.1 28.701 L 116.6 28.701 A 0.576 0.576 0 0 1 116.758 28.72 Q 116.936 28.771 116.983 28.952 A 0.589 0.589 0 0 1 117 29.101 L 117.1 40.401 A 0.576 0.576 0 0 1 117.08 40.559 Q 117.029 40.736 116.848 40.784 A 0.589 0.589 0 0 1 116.7 40.801 L 96.1 40.801 L 96.1 58.301 L 116.7 58.301 A 0.453 0.453 0 0 1 116.875 58.332 Q 117.1 58.426 117.1 58.801 L 117.1 70.201 A 0.576 0.576 0 0 1 117.08 70.359 Q 117.029 70.536 116.848 70.584 A 0.589 0.589 0 0 1 116.7 70.601 Z M 35.6 70.601 L 10.6 70.601 A 0.576 0.576 0 0 1 10.442 70.581 Q 10.264 70.53 10.217 70.349 A 0.589 0.589 0 0 1 10.2 70.201 L 10.2 40.901 L 0.5 40.901 A 0.917 0.917 0 0 1 0.318 40.884 Q 0.036 40.827 0.004 40.57 A 0.56 0.56 0 0 1 0 40.501 L 0 29.601 Q 0 29.201 0.5 29.201 L 10.2 29.201 L 10.2 1.401 A 0.576 0.576 0 0 1 10.22 1.242 Q 10.271 1.065 10.452 1.018 A 0.589 0.589 0 0 1 10.6 1.001 L 35.6 1.001 A 0.917 0.917 0 0 1 35.783 1.017 Q 36.064 1.075 36.096 1.332 A 0.56 0.56 0 0 1 36.1 1.401 L 36.1 12.301 A 0.453 0.453 0 0 1 36.069 12.476 Q 35.975 12.701 35.6 12.701 L 21.8 12.701 L 21.8 58.901 L 35.6 58.901 A 0.917 0.917 0 0 1 35.783 58.917 Q 36.064 58.975 36.096 59.232 A 0.56 0.56 0 0 1 36.1 59.301 L 36.1 70.201 A 0.453 0.453 0 0 1 36.069 70.376 Q 35.975 70.601 35.6 70.601 Z M 194.9 70.601 L 169.9 70.601 A 0.917 0.917 0 0 1 169.718 70.584 Q 169.436 70.527 169.404 70.27 A 0.56 0.56 0 0 1 169.4 70.201 L 169.4 59.301 Q 169.4 58.901 169.9 58.901 L 183.7 58.901 L 183.7 12.701 L 169.9 12.701 A 0.917 0.917 0 0 1 169.718 12.684 Q 169.436 12.627 169.404 12.37 A 0.56 0.56 0 0 1 169.4 12.301 L 169.4 1.401 Q 169.4 1.001 169.9 1.001 L 194.9 1.001 A 0.576 0.576 0 0 1 195.058 1.02 Q 195.236 1.071 195.283 1.252 A 0.589 0.589 0 0 1 195.3 1.401 L 195.3 29.201 L 205 29.201 A 0.917 0.917 0 0 1 205.183 29.217 Q 205.464 29.275 205.496 29.532 A 0.56 0.56 0 0 1 205.5 29.601 L 205.5 40.501 A 0.453 0.453 0 0 1 205.469 40.676 Q 205.375 40.901 205 40.901 L 195.3 40.901 L 195.3 70.201 A 0.576 0.576 0 0 1 195.28 70.359 Q 195.229 70.536 195.048 70.584 A 0.589 0.589 0 0 1 194.9 70.601 Z M 64.7 70.601 L 53.2 70.601 A 0.315 0.315 0 0 1 53.062 70.572 Q 52.929 70.508 52.905 70.298 A 0.875 0.875 0 0 1 52.9 70.201 L 53 41.801 L 39.6 1.401 Q 39.5 1.001 39.9 1.001 L 51 1.001 A 0.938 0.938 0 0 1 51.219 1.024 Q 51.524 1.097 51.6 1.401 L 59 28.301 L 66.5 1.401 Q 66.589 1.043 66.919 1.005 A 0.712 0.712 0 0 1 67 1.001 L 78.2 1.001 Q 78.587 1.001 78.506 1.376 A 0.826 0.826 0 0 1 78.5 1.401 L 65 41.401 L 65.1 70.201 A 0.576 0.576 0 0 1 65.08 70.359 Q 65.029 70.536 64.848 70.584 A 0.589 0.589 0 0 1 64.7 70.601 Z" vector-effect="non-scaling-stroke" />
    </g>

</svg>