<svg width="206.00000000000003" height="150" xmlns="http://www.w3.org/2000/svg">

    <g>
        <g stroke="null" id="svg_1">
            <path stroke="null" id="svg_2" fill="#0C2D48" d="m0.09678,75c0,-56.25 25.72581,-75 102.90322,-75s102.90322,18.75 102.90322,75s-25.72581,75 -102.90322,75s-102.90322,-18.75 -102.90322,-75" />
        </g>
        <g stroke="white" fill="white" stroke-width="0.25mm" font-size="9pt" fill-rule="evenodd" stroke-linecap="round" id="svgGroup">
            <path stroke="null" id="svg_3" vector-effect="non-scaling-stroke" d="m120.2778,88.13618l0,-3.84882a0.60242,0.60242 0 0 1 0.02092,-0.16567q0.07196,-0.25268 0.39743,-0.25268l9.37103,0a0.37902,0.37902 0 0 1 0.14642,0.02594q0.18826,0.07865 0.18826,0.39241l0,3.84882q0,2.76111 1.84074,4.72735a6.27608,6.27608 0 0 0 1.96039,1.44331a5.85271,5.85271 0 0 0 2.47412,0.52294q2.59377,0 4.43451,-2.00808q1.84074,-2.00808 1.84074,-4.68552a4.78759,4.78759 0 0 0 -1.1672,-3.09495q-0.99735,-1.21907 -2.84896,-2.25992q-1.33872,-0.75303 -4.1835,-2.34276q-2.84478,-1.58973 -5.35488,-3.01212q-4.60185,-2.67744 -6.8191,-6.73543a18.21996,18.21996 0 0 1 -2.13944,-7.28514a22.23445,22.23445 0 0 1 -0.07781,-1.87672a16.63944,16.63944 0 0 1 0.90447,-5.54481a15.21203,15.21203 0 0 1 1.35462,-2.86402q2.25909,-3.72331 5.9824,-5.89873q3.72331,-2.17542 8.07415,-2.17542q4.43451,0 8.15782,2.21725q3.72331,2.21725 5.94057,5.94057a15.86717,15.86717 0 0 1 2.21223,7.8951a18.85084,18.85084 0 0 1 0.00502,0.43006l0,6.86093a0.48194,0.48194 0 0 1 -0.01673,0.1322q-0.04267,0.1481 -0.19411,0.18826a0.49282,0.49282 0 0 1 -0.12383,0.01422l-9.37103,0a0.48194,0.48194 0 0 1 -0.1322,-0.01673q-0.14893,-0.04267 -0.18826,-0.19411a0.49282,0.49282 0 0 1 -0.01422,-0.12383l-0.08367,-6.86093a7.60894,7.60894 0 0 0 -0.30372,-2.20052a6.04013,6.04013 0 0 0 -1.53702,-2.56867a6.29365,6.29365 0 0 0 -2.07585,-1.409a5.96399,5.96399 0 0 0 -2.27499,-0.43174a5.82008,5.82008 0 0 0 -4.26047,1.78552a7.48344,7.48344 0 0 0 -0.17403,0.18073q-1.84074,1.96624 -1.84074,4.64368a10.77585,10.77585 0 0 0 0.17905,2.01645q0.27862,1.46339 0.99233,2.5854q1.14795,1.80392 4.14417,3.44636a23.00672,23.00672 0 0 0 0.12299,0.06777a9.73249,9.73249 0 0 0 0.24013,0.13806q0.46269,0.25938 1.39143,0.74048q1.21321,0.62752 2.6356,1.42239a115.20848,115.20848 0 0 0 1.18895,0.65514q0.72793,0.39576 1.36298,0.72542q1.05675,0.54804 1.34458,0.7296a1.7487,1.7487 0 0 1 0.03598,0.02343q4.1835,2.34276 6.60992,5.73139a12.77222,12.77222 0 0 1 2.16538,5.25196a17.35482,17.35482 0 0 1 0.26105,3.0732a17.59411,17.59411 0 0 1 -0.86598,5.58497a15.88557,15.88557 0 0 1 -1.35127,2.9912q-2.21725,3.80698 -5.94057,6.02424q-3.72331,2.21725 -8.24149,2.21725q-4.51818,0 -8.24149,-2.30092q-3.72331,-2.30092 -5.94057,-6.10791q-2.21725,-3.80698 -2.21725,-8.40883zm-5.60589,15.98096l-27.02539,0a0.37902,0.37902 0 0 1 -0.14642,-0.02677q-0.18826,-0.07781 -0.18826,-0.39158l0.08367,-57.48125a0.48194,0.48194 0 0 1 0.01673,-0.13304q0.04267,-0.1481 0.19411,-0.18742a0.49282,0.49282 0 0 1 0.12383,-0.01422l26.85805,0a0.37902,0.37902 0 0 1 0.14642,0.02594q0.18826,0.07865 0.18826,0.39241l0,9.37103a0.48194,0.48194 0 0 1 -0.01673,0.1322q-0.04267,0.1481 -0.19411,0.18826a0.49282,0.49282 0 0 1 -0.12383,0.01422l-17.15234,0l0,13.05251l17.15234,0a0.48194,0.48194 0 0 1 0.1322,0.0159q0.14893,0.04267 0.18826,0.19411a0.49282,0.49282 0 0 1 0.01422,0.12467l0.08367,9.4547a0.48194,0.48194 0 0 1 -0.01673,0.1322q-0.04267,0.1481 -0.19411,0.18826a0.49282,0.49282 0 0 1 -0.12383,0.01422l-17.23601,0l0,14.64224l17.23601,0a0.37902,0.37902 0 0 1 0.14642,0.02594q0.18826,0.07865 0.18826,0.39241l0,9.53837a0.48194,0.48194 0 0 1 -0.01673,0.1322q-0.04267,0.1481 -0.19411,0.18826a0.49282,0.49282 0 0 1 -0.12383,0.01422zm-67.85632,0l-20.91748,0a0.48194,0.48194 0 0 1 -0.1322,-0.01673q-0.14893,-0.04267 -0.18826,-0.19411a0.49282,0.49282 0 0 1 -0.01422,-0.12383l0,-24.51529l-8.11598,0a0.76725,0.76725 0 0 1 -0.15228,-0.01422q-0.23595,-0.04769 -0.26272,-0.26272a0.46855,0.46855 0 0 1 -0.00335,-0.05773l0,-9.12002q0,-0.33468 0.41835,-0.33468l8.11598,0l0,-23.26024a0.48194,0.48194 0 0 1 0.01673,-0.13304q0.04267,-0.1481 0.19411,-0.18742a0.49282,0.49282 0 0 1 0.12383,-0.01422l20.91748,0a0.76725,0.76725 0 0 1 0.15312,0.01339q0.23511,0.04853 0.26189,0.26356a0.46855,0.46855 0 0 1 0.00335,0.05773l0,9.12002a0.37902,0.37902 0 0 1 -0.02594,0.14642q-0.07865,0.18826 -0.39241,0.18826l-11.54645,0l0,38.65551l11.54645,0a0.76725,0.76725 0 0 1 0.15312,0.01339q0.23511,0.04853 0.26189,0.26356a0.46855,0.46855 0 0 1 0.00335,0.05773l0,9.12002a0.37902,0.37902 0 0 1 -0.02594,0.14642q-0.07865,0.18826 -0.39241,0.18826zm133.28621,0l-20.91748,0a0.76725,0.76725 0 0 1 -0.15228,-0.01422q-0.23595,-0.04769 -0.26272,-0.26272a0.46855,0.46855 0 0 1 -0.00335,-0.05773l0,-9.12002q0,-0.33468 0.41835,-0.33468l11.54645,0l0,-38.65551l-11.54645,0a0.76725,0.76725 0 0 1 -0.15228,-0.01422q-0.23595,-0.04769 -0.26272,-0.26272a0.46855,0.46855 0 0 1 -0.00335,-0.05773l0,-9.12002q0,-0.33468 0.41835,-0.33468l20.91748,0a0.48194,0.48194 0 0 1 0.1322,0.0159q0.14893,0.04267 0.18826,0.19411a0.49282,0.49282 0 0 1 0.01422,0.12467l0,23.26024l8.11598,0a0.76725,0.76725 0 0 1 0.15312,0.01339q0.23511,0.04853 0.26189,0.26356a0.46855,0.46855 0 0 1 0.00335,0.05773l0,9.12002a0.37902,0.37902 0 0 1 -0.02594,0.14642q-0.07865,0.18826 -0.39241,0.18826l-8.11598,0l0,24.51529a0.48194,0.48194 0 0 1 -0.01673,0.1322q-0.04267,0.1481 -0.19411,0.18826a0.49282,0.49282 0 0 1 -0.12383,0.01422zm-108.93826,0l-9.62204,0a0.26356,0.26356 0 0 1 -0.11546,-0.02426q-0.11128,-0.05355 -0.13136,-0.22926a0.73211,0.73211 0 0 1 -0.00418,-0.08116l0.08367,-23.76226l-11.21177,-33.80265q-0.08367,-0.33468 0.25101,-0.33468l9.28736,0a0.78482,0.78482 0 0 1 0.18324,0.01924q0.25519,0.06108 0.31878,0.31544l6.19158,22.50721l6.27525,-22.50721q0.07447,-0.29954 0.35058,-0.33133a0.59573,0.59573 0 0 1 0.06777,-0.00335l9.37103,0q0.3238,0 0.25603,0.31376a0.69111,0.69111 0 0 1 -0.00502,0.02092l-11.29544,33.46797l0.08367,24.09694a0.48194,0.48194 0 0 1 -0.01673,0.1322q-0.04267,0.1481 -0.19411,0.18826a0.49282,0.49282 0 0 1 -0.12383,0.01422z" />
        </g>
    </g>
</svg>