<?xml version="1.0" encoding="UTF-8" standalone="no"?>
<!-- Created with Inkscape (http://www.inkscape.org/) -->

<svg
   width="66.262131mm"
   height="62.575397mm"
   viewBox="0 0 66.262134 62.575397"
   version="1.1"
   id="svg5"
   inkscape:version="1.1.1 (3bf5ae0d25, 2021-09-20)"
   sodipodi:docname="drawing.svg"
   xmlns:inkscape="http://www.inkscape.org/namespaces/inkscape"
   xmlns:sodipodi="http://sodipodi.sourceforge.net/DTD/sodipodi-0.dtd"
   xmlns="http://www.w3.org/2000/svg"
   xmlns:svg="http://www.w3.org/2000/svg">
  <sodipodi:namedview
     id="namedview7"
     pagecolor="#505050"
     bordercolor="#eeeeee"
     borderopacity="1"
     inkscape:pageshadow="0"
     inkscape:pageopacity="0"
     inkscape:pagecheckerboard="0"
     inkscape:document-units="px"
     showgrid="false"
     inkscape:zoom="0.32026164"
     inkscape:cx="432.45891"
     inkscape:cy="557.35678"
     inkscape:window-width="1600"
     inkscape:window-height="829"
     inkscape:window-x="1912"
     inkscape:window-y="198"
     inkscape:window-maximized="1"
     inkscape:current-layer="layer1"
     inkscape:snap-object-midpoints="false"
     inkscape:snap-center="false"
     fit-margin-top="0"
     fit-margin-left="0"
     fit-margin-right="0"
     fit-margin-bottom="0" />
  <defs
     id="defs2" />
  <g
     inkscape:label="Layer 1"
     inkscape:groupmode="layer"
     id="layer1"
     transform="translate(-36.379985,-168.38828)">
    <path
       id="rect3196"
       style="fill:#2d6a9f;fill-opacity:1;stroke-width:0.197502"
       d="m 55.041595,168.38828 h 47.600525 l -0.19823,18.66161 v 25.25217 c 0,10.33854 -8.323079,18.66162 -18.661607,18.66162 H 55.041595 l -18.66161,-0.0198 v -43.89397 c 0,-10.33853 8.323078,-18.66161 18.66161,-18.66161 z"
       sodipodi:nodetypes="sccssccss" />
    <g
       stroke="#ffffff"
       fill="#ffffff"
       stroke-width="0.25mm"
       font-size="12px"
       fill-rule="evenodd"
       stroke-linecap="round"
       id="svgGroup-7"
       transform="matrix(0.3524022,0,0,0.40586961,33.213572,169.23575)">
      <path
         stroke="null"
         id="svg_3-9"
         vector-effect="non-scaling-stroke"
         d="m 120.2778,88.13618 v -3.84882 a 0.60242,0.60242 0 0 1 0.0209,-0.16567 q 0.072,-0.25268 0.39743,-0.25268 h 9.37103 a 0.37902,0.37902 0 0 1 0.14642,0.02594 q 0.18826,0.07865 0.18826,0.39241 v 3.84882 q 0,2.76111 1.84074,4.72735 a 6.27608,6.27608 0 0 0 1.96039,1.44331 5.85271,5.85271 0 0 0 2.47412,0.52294 q 2.59377,0 4.43451,-2.00808 1.84074,-2.00808 1.84074,-4.68552 a 4.78759,4.78759 0 0 0 -1.1672,-3.09495 q -0.99735,-1.21907 -2.84896,-2.25992 -1.33872,-0.75303 -4.1835,-2.34276 -2.84478,-1.58973 -5.35488,-3.01212 -4.60185,-2.67744 -6.8191,-6.73543 a 18.21996,18.21996 0 0 1 -2.13944,-7.28514 22.23445,22.23445 0 0 1 -0.0778,-1.87672 16.63944,16.63944 0 0 1 0.90447,-5.54481 15.21203,15.21203 0 0 1 1.35462,-2.86402 q 2.25909,-3.72331 5.9824,-5.89873 3.72331,-2.17542 8.07415,-2.17542 4.43451,0 8.15782,2.21725 3.72331,2.21725 5.94057,5.94057 a 15.86717,15.86717 0 0 1 2.21223,7.8951 18.85084,18.85084 0 0 1 0.005,0.43006 v 6.86093 a 0.48194,0.48194 0 0 1 -0.0167,0.1322 q -0.0427,0.1481 -0.19411,0.18826 a 0.49282,0.49282 0 0 1 -0.12383,0.01422 h -9.37103 a 0.48194,0.48194 0 0 1 -0.1322,-0.01673 q -0.14893,-0.04267 -0.18826,-0.19411 a 0.49282,0.49282 0 0 1 -0.0142,-0.12383 l -0.0837,-6.86093 a 7.60894,7.60894 0 0 0 -0.30372,-2.20052 6.04013,6.04013 0 0 0 -1.53702,-2.56867 6.29365,6.29365 0 0 0 -2.07585,-1.409 5.96399,5.96399 0 0 0 -2.27499,-0.43174 5.82008,5.82008 0 0 0 -4.26047,1.78552 7.48344,7.48344 0 0 0 -0.17403,0.18073 q -1.84074,1.96624 -1.84074,4.64368 a 10.77585,10.77585 0 0 0 0.17905,2.01645 q 0.27862,1.46339 0.99233,2.5854 1.14795,1.80392 4.14417,3.44636 a 23.00672,23.00672 0 0 0 0.12299,0.06777 9.73249,9.73249 0 0 0 0.24013,0.13806 q 0.46269,0.25938 1.39143,0.74048 1.21321,0.62752 2.6356,1.42239 a 115.20848,115.20848 0 0 0 1.18895,0.65514 q 0.72793,0.39576 1.36298,0.72542 1.05675,0.54804 1.34458,0.7296 a 1.7487,1.7487 0 0 1 0.036,0.02343 q 4.1835,2.34276 6.60992,5.73139 a 12.77222,12.77222 0 0 1 2.16538,5.25196 17.35482,17.35482 0 0 1 0.26105,3.0732 17.59411,17.59411 0 0 1 -0.86598,5.58497 15.88557,15.88557 0 0 1 -1.35127,2.9912 q -2.21725,3.80698 -5.94057,6.02424 -3.72331,2.21725 -8.24149,2.21725 -4.51818,0 -8.24149,-2.30092 -3.72331,-2.30092 -5.94057,-6.10791 -2.21725,-3.80698 -2.21725,-8.40883 z m -5.60589,15.98096 H 87.64652 a 0.37902,0.37902 0 0 1 -0.14642,-0.0268 q -0.18826,-0.0778 -0.18826,-0.39158 l 0.08367,-57.48125 a 0.48194,0.48194 0 0 1 0.01673,-0.13304 q 0.04267,-0.1481 0.19411,-0.18742 a 0.49282,0.49282 0 0 1 0.12383,-0.01422 h 26.85805 a 0.37902,0.37902 0 0 1 0.14642,0.02594 q 0.18826,0.07865 0.18826,0.39241 v 9.37103 a 0.48194,0.48194 0 0 1 -0.0167,0.1322 q -0.0427,0.1481 -0.19411,0.18826 a 0.49282,0.49282 0 0 1 -0.12383,0.01422 H 97.4359 V 69.0594 h 17.15234 a 0.48194,0.48194 0 0 1 0.1322,0.0159 q 0.14893,0.04267 0.18826,0.19411 a 0.49282,0.49282 0 0 1 0.0142,0.12467 l 0.0837,9.4547 a 0.48194,0.48194 0 0 1 -0.0167,0.1322 q -0.0427,0.1481 -0.19411,0.18826 a 0.49282,0.49282 0 0 1 -0.12383,0.01422 H 97.43591 V 93.8257 h 17.23601 a 0.37902,0.37902 0 0 1 0.14642,0.02594 q 0.18826,0.07865 0.18826,0.39241 v 9.53837 a 0.48194,0.48194 0 0 1 -0.0167,0.1322 q -0.0427,0.1481 -0.19411,0.18826 a 0.49282,0.49282 0 0 1 -0.12383,0.0142 z m -67.85632,0 H 25.89811 a 0.48194,0.48194 0 0 1 -0.1322,-0.0167 q -0.14893,-0.0427 -0.18826,-0.19411 A 0.49282,0.49282 0 0 1 25.56343,103.7825 V 79.26718 h -8.11598 a 0.76725,0.76725 0 0 1 -0.15228,-0.01422 q -0.23595,-0.04769 -0.26272,-0.26272 a 0.46855,0.46855 0 0 1 -0.0034,-0.05773 v -9.12002 q 0,-0.33468 0.41835,-0.33468 h 8.11598 V 46.21757 a 0.48194,0.48194 0 0 1 0.01673,-0.13304 q 0.04267,-0.1481 0.19411,-0.18742 a 0.49282,0.49282 0 0 1 0.12383,-0.01422 h 20.91748 a 0.76725,0.76725 0 0 1 0.15312,0.01339 q 0.23511,0.04853 0.26189,0.26356 a 0.46855,0.46855 0 0 1 0.0033,0.05773 v 9.12002 A 0.37902,0.37902 0 0 1 47.208,55.48401 q -0.07865,0.18826 -0.39241,0.18826 H 35.26914 v 38.65551 h 11.54645 a 0.76725,0.76725 0 0 1 0.15312,0.01339 q 0.23511,0.04853 0.26189,0.26356 a 0.46855,0.46855 0 0 1 0.0033,0.05773 v 9.12002 a 0.37902,0.37902 0 0 1 -0.02594,0.14642 q -0.07865,0.18826 -0.39241,0.18826 z m 133.28621,0 h -20.91748 a 0.76725,0.76725 0 0 1 -0.15228,-0.0142 q -0.23595,-0.0477 -0.26272,-0.26272 a 0.46855,0.46855 0 0 1 -0.003,-0.0577 V 94.6625 q 0,-0.33468 0.41835,-0.33468 h 11.54645 V 55.67226 h -11.54645 a 0.76725,0.76725 0 0 1 -0.15228,-0.01422 q -0.23595,-0.04769 -0.26272,-0.26272 a 0.46855,0.46855 0 0 1 -0.003,-0.05773 v -9.12002 q 0,-0.33468 0.41835,-0.33468 h 20.91748 a 0.48194,0.48194 0 0 1 0.1322,0.0159 q 0.14893,0.04267 0.18826,0.19411 a 0.49282,0.49282 0 0 1 0.0142,0.12467 v 23.26024 h 8.11598 a 0.76725,0.76725 0 0 1 0.15312,0.01339 q 0.23511,0.04853 0.26189,0.26356 a 0.46855,0.46855 0 0 1 0.003,0.05773 v 9.12002 a 0.37902,0.37902 0 0 1 -0.0259,0.14642 q -0.0787,0.18826 -0.39241,0.18826 h -8.11598 v 24.51529 a 0.48194,0.48194 0 0 1 -0.0167,0.1322 q -0.0427,0.1481 -0.19411,0.18826 a 0.49282,0.49282 0 0 1 -0.12383,0.0142 z m -108.93826,0 H 61.5415 a 0.26356,0.26356 0 0 1 -0.11546,-0.0243 q -0.11128,-0.0535 -0.13136,-0.22926 a 0.73211,0.73211 0 0 1 -0.0042,-0.0812 L 61.37417,80.0202 50.1624,46.21755 q -0.08367,-0.33468 0.25101,-0.33468 h 9.28736 a 0.78482,0.78482 0 0 1 0.18324,0.01924 q 0.25519,0.06108 0.31878,0.31544 l 6.19158,22.50721 6.27525,-22.50721 q 0.07447,-0.29954 0.35058,-0.33133 a 0.59573,0.59573 0 0 1 0.06777,-0.0034 H 82.459 q 0.3238,0 0.25603,0.31376 a 0.69111,0.69111 0 0 1 -0.005,0.02092 l -11.29544,33.46797 0.08367,24.09694 a 0.48194,0.48194 0 0 1 -0.01673,0.1322 q -0.04267,0.1481 -0.19411,0.18826 a 0.49282,0.49282 0 0 1 -0.12383,0.0142 z" />
    </g>
  </g>
</svg>
